<svg viewBox="0 0 22 22" width="22" height="22" fill="none" xmlns="http://www.w3.org/2000/svg"><g clip-path="url(#prefix__prefix__clip0)"><path d="M18.209.202a.573.573 0 00-.482-.2l-.13.01c-1.662.132-3.454.346-4.15.937-.35.295-.61.676-.764 1.11H4.764a1.1 1.1 0 00-.802.344 1.1 1.1 0 00-.306.818l.86 17.721A1.108 1.108 0 005.623 22h7.332c.593 0 1.08-.465 1.108-1.057l.604-12.467c.07.002.143.003.216.003.976 0 2.113-.167 2.763-.263l.13-.02a.573.573 0 00.426-.823l-.06-.116c-.448-.886-.94-1.804-1.438-2.49.352-.305.682-.92 1.01-1.878.26-.759.46-1.57.58-2.053l.032-.127a.573.573 0 00-.119-.507zM13.95 9.866a.322.322 0 00-.107-.136l-1.1-.806-1.636-1.199-2.736-2.004a.324.324 0 00-.46.08 3.7 3.7 0 00-.587 2.716 3.7 3.7 0 002.038 2.714.819.819 0 00.084 1.065l.987.987a.819.819 0 00.583.242c.22 0 .427-.086.582-.242l.987-.986a.819.819 0 00.07-1.085 3.702 3.702 0 001.251-1.02.322.322 0 00.03-.046l-.437 9.03H7.212a.324.324 0 100 .65h6.257l-.053 1.086a.46.46 0 01-.46.44H5.624a.46.46 0 01-.46-.44l-.053-1.087h.804a.324.324 0 100-.648H5.08L4.415 5.463H9.72a.324.324 0 100-.648H4.384L4.305 3.19a.457.457 0 01.127-.34.457.457 0 01.333-.142h9.05c.127 0 .245.05.333.143a.456.456 0 01.127.339l-.079 1.625h-3.18a.324.324 0 100 .648h3.149l-.214 4.403zm-1.902 1.645l.078.079a.175.175 0 010 .248l-.986.987a.175.175 0 01-.248 0l-.987-.987a.175.175 0 010-.248l.112-.112a3.693 3.693 0 001.992-.015.327.327 0 00.039.048zm-.643-.582a3.054 3.054 0 01-2.231-.565 3.054 3.054 0 01-1.211-1.957 3.054 3.054 0 01.31-1.954l.585.429a2.36 2.36 0 00.738 2.906 2.356 2.356 0 002.993-.172l.585.428a3.054 3.054 0 01-1.769.885zm.649-1.706a1.71 1.71 0 01-2.075.041 1.71 1.71 0 01-.585-1.99l2.66 1.949zm5.521-1.652l-.023.003c-.676.1-1.895.28-2.854.254l.026-.527a.324.324 0 00.608-.222l-.116-.365.705.365a.323.323 0 00.437-.139.324.324 0 00-.14-.437l-.704-.365.161-.05a.324.324 0 00-.196-.619l-.677.215.074-1.515c.184.034.36.094.526.18.734.38 1.772 2.43 2.162 3.2l.011.022zm.09-6.891c-.205.828-.747 3.013-1.368 3.582a2.275 2.275 0 00-.597-.49 2.552 2.552 0 00-.793-.257l.005-.093.38-.323a.324.324 0 00.071.015l.735.06.027.001a.324.324 0 00.026-.647l-.169-.014L16.59 2a.324.324 0 00-.42-.495l-.605.513.014-.168a.324.324 0 10-.646-.053l-.06.734a.324.324 0 00.002.073l-.07.06a1.113 1.113 0 00-.99-.605h-.427c.118-.237.281-.449.479-.616.63-.536 2.92-.717 3.782-.785l.024-.002-.006.023z"/><path d="M5.316 12.465l.28 1.68a.819.819 0 00.334.534.818.818 0 00.614.143l1.68-.28a.825.825 0 00.677-.949l-.28-1.679a.825.825 0 00-.949-.677l-1.679.28a.825.825 0 00-.677.948zm.784-.309l1.679-.28a.176.176 0 01.202.144l.28 1.68a.176.176 0 01-.144.202l-1.68.28a.174.174 0 01-.13-.03.174.174 0 01-.071-.114l-.28-1.68a.176.176 0 01.144-.202zm2.883 4.781l.895.895a.821.821 0 001.165 0l.895-.895a.819.819 0 00.242-.583.818.818 0 00-.242-.583l-.895-.895a.825.825 0 00-1.165 0l-.895.895a.825.825 0 000 1.166zm.458-.707l.895-.895a.176.176 0 01.249 0l.895.895a.175.175 0 010 .248l-.895.895a.176.176 0 01-.249 0l-.895-.895a.176.176 0 010-.248z"/></g><defs><clipPath id="prefix__prefix__clip0"><path d="M0 0h22v22H0z"/></clipPath></defs></svg>