<svg viewBox="0 0 22 22" width="22" height="22" fill="none" xmlns="http://www.w3.org/2000/svg"><path d="M19.714 9.647a3.165 3.165 0 00-.913-.172c-.062-.005-.137-.01-.199-.018l.096-.123c.259-.288.445-.633.543-1.007.2-.87.244-2.51-.854-3.128a2.003 2.003 0 00-1.584-.134 2.819 2.819 0 00-1.64 1.307c-.39.756-.181 1.525-.012 2.143.103.382.203.743.08.859-.144.137-.572.022-.986-.09-.13-.035-.262-.07-.396-.104a2.753 2.753 0 00-2.505-1.618h-.028a3.198 3.198 0 00-.196-.763c-.685-1.74-2.61-2.62-3.872-2.245a2.063 2.063 0 00-.935.607 3.443 3.443 0 00-1.068-.991 3.951 3.951 0 00-3.149-.241 2.077 2.077 0 00-1.323 1.1c-.32.812.275 1.733 1.358 3.407.116.178.236.353.356.53a6.253 6.253 0 00-.83.377 1.805 1.805 0 00-.841.842 3.403 3.403 0 00-.129 1.159 9.98 9.98 0 009.97 9.968h.687a9.98 9.98 0 009.968-9.968.61.61 0 00-.037-.156 2.976 2.976 0 00-1.56-1.541zm-5.647.303c.598.163 1.216.33 1.64-.077.417-.4.26-.978.107-1.538-.153-.559-.308-1.128-.04-1.646.272-.464.71-.808 1.226-.962a1.347 1.347 0 011.05.074c.692.39.69 1.633.521 2.374a1.82 1.82 0 01-.409.728c-.188.235-.422.528-.251.875.166.331.523.358.84.381a2.5 2.5 0 01.721.131c.357.146.664.392.883.71h-3.443a25.716 25.716 0 01.945-3.671l-.651-.22c-.27.797-.504 1.618-.697 2.437-.112.48-.21.967-.295 1.454h-2.21c.092-.342.114-.7.063-1.05zm-2.38-1.013v-.656a2.066 2.066 0 011.639 1.467l-.716.239.217.653.572-.19a1.998 1.998 0 01-.112.55H9.4a2.023 2.023 0 01-.108-.894l.568.19.217-.654-.6-.2A2.066 2.066 0 0111 8.281v.656h.687zM7.444 5.214c.937-.279 2.501.48 3.037 1.839.076.195.128.398.154.605a2.736 2.736 0 00-1.955 3.328L8.65 11H7.066c.147-.153.291-.31.422-.475a7.041 7.041 0 001.447-3.613l-.683-.075A6.394 6.394 0 016.949 10.1c-.02.025-.042.046-.062.069a5.844 5.844 0 00-.2-4.382c.183-.268.45-.468.757-.572zm-6.03.069a1.444 1.444 0 01.909-.703 3.286 3.286 0 012.578.187c1.644.95 2.02 3.685 1.247 5.405-.028.06-.06.116-.09.172a9.453 9.453 0 00-.232-.828 10.021 10.021 0 00-2.845-4.27l-.462.509a9.346 9.346 0 012.655 3.979c.137.414.244.837.319 1.266h-.595a27.389 27.389 0 01-2.19-2.937c-.976-1.51-1.477-2.318-1.295-2.78zm.03 5.18c.114-.23.305-.413.541-.516.29-.16.594-.292.909-.397.356.497.727.98 1.112 1.45H1.393a.937.937 0 01.05-.537zm9.9 10.162h-.688a9.292 9.292 0 01-9.275-8.938H20.62a9.292 9.292 0 01-9.275 8.938z"/><path d="M11.688 9.625H11v.688h.688v-.688zm0-4.812V5.5a.344.344 0 00.343.344h1.375A3.097 3.097 0 0016.5 2.75v-.688a.344.344 0 00-.344-.343h-1.375a3.097 3.097 0 00-3.094 3.093zm3.093-2.407h1.031v.344a2.409 2.409 0 01-2.406 2.406h-.447l1.701-1.458-.447-.521-1.835 1.573a2.406 2.406 0 012.403-2.344zm-6.187.344a1.031 1.031 0 102.062 0 1.031 1.031 0 00-2.062 0zm1.375 0a.344.344 0 11-.688 0 .344.344 0 01.688 0zM4.125 1.719a1.031 1.031 0 102.063 0 1.031 1.031 0 00-2.063 0zm1.375 0a.344.344 0 11-.688 0 .344.344 0 01.688 0zM3.731 14.947l-.588.357a9.335 9.335 0 003.926 3.568l.3-.619a8.654 8.654 0 01-3.638-3.306zm4.863 3.616h-.688v.687h.688v-.688z"/></svg>