<svg width="22" height="22" fill="none" xmlns="http://www.w3.org/2000/svg" viewBox="0 0 22 22"><g clip-path="url(#prefix__clip0)" fill="#fff"><path d="M5.042 3.208C2.215 3.208 0 4.417 0 5.958c0 1.542 2.215 2.75 5.042 2.75s5.041-1.208 5.041-2.75c0-1.541-2.214-2.75-5.041-2.75zm0 4.584C2.61 7.792.917 6.826.917 5.958c0-.867 1.694-1.833 4.125-1.833 2.43 0 4.125.966 4.125 1.833 0 .868-1.694 1.834-4.125 1.834z"/><path d="M9.625 5.5a.459.459 0 00-.458.458v5.5c0 .867-1.694 1.834-4.125 1.834S.917 12.326.917 11.458v-5.5a.459.459 0 00-.917 0v5.5c0 1.542 2.215 2.75 5.042 2.75s5.041-1.208 5.041-2.75v-5.5a.458.458 0 00-.458-.458z"/><path d="M5.042 5.042c-.856 0-2.292.119-2.292.916 0 .798 1.436.917 2.292.917.856 0 2.291-.12 2.291-.917s-1.435-.916-2.291-.916zM16.958 1.375c-2.827 0-5.041 1.208-5.041 2.75s2.214 2.75 5.041 2.75c2.827 0 5.042-1.208 5.042-2.75s-2.215-2.75-5.042-2.75zm0 4.583c-2.43 0-4.125-.966-4.125-1.833s1.694-1.833 4.125-1.833 4.125.966 4.125 1.833-1.694 1.833-4.125 1.833z"/><path d="M21.541 3.667a.458.458 0 00-.458.458v5.5c0 .867-1.694 1.833-4.125 1.833-2.43 0-4.125-.966-4.125-1.833v-5.5a.459.459 0 00-.917 0v5.5c0 1.542 2.215 2.75 5.042 2.75S22 11.167 22 9.625v-5.5a.459.459 0 00-.459-.458z"/><path d="M16.959 3.208c-.857 0-2.292.12-2.292.917 0 .798 1.435.917 2.292.917.856 0 2.291-.12 2.291-.917s-1.435-.917-2.291-.917zM20.141 13.599a.459.459 0 00-.584-.282L1.224 19.734a.458.458 0 10.302.865l18.334-6.416a.458.458 0 00.281-.584z"/><path d="M21.542 17.875H.458a.458.458 0 000 .917h21.084a.459.459 0 000-.917z"/></g><defs><clipPath id="prefix__clip0"><path fill="#fff" d="M0 0h22v22H0z"/></clipPath></defs></svg>